# xmcd
#
# Track frame offsets:
#	150
#	21372
#	35072
#	53707
#	69987
#	88468
#	107496
#	122568
#	135871
#	156591
#	171046
#	189246
#	203208
#	216671
#
# Disc length: 3166 seconds
#
# Revision: 0
# Processed by: cddbd v1.4PL0 Copyright (c) Steve Scherf et al.
# Submitted via: EasyCDDAExtractor 4.5.0.2
#
DISCID=c90c5c0e
DTITLE=C. A. Waller8 - ...what do you do with your blues?
DYEAR=1998
DGENRE=blues
TTITLE0=Big Leg Blues
TTITLE1=Cause and Effect
TTITLE2=Glass of Water
TTITLE3=Sitting on Top of the World
TTITLE4=Miss Loretta
TTITLE5=Long Division Blues
TTITLE6=Keep it Clean
TTITLE7=Best Years
TTITLE8=Red Beans and Rice
TTITLE9=Gravel Road Blues
TTITLE10=Gulf Coast Blues
TTITLE11=Bye Bye Baby Blues
TTITLE12=God Don't Never Change
TTITLE13=What Do You Do WIth Your Blues?
EXTD=
EXTT0=
EXTT1=
EXTT2=
EXTT3=
EXTT4=
EXTT5=
EXTT6=
EXTT7=
EXTT8=
EXTT9=
EXTT10=
EXTT11=
EXTT12=
EXTT13=
PLAYORDER=
